<svg xmlns="http://www.w3.org/2000/svg" viewBox="0 0 200 200" width="200" height="200">
  <defs>
    <style>
      .avatar-bg { fill: #80CBC4; }
      .dragon-body { fill: #26A69A; }
      .dragon-belly { fill: #B2DFDB; }
      .dragon-horn { fill: #FFB74D; }
      .dragon-eye { fill: #1B5E20; }
      .dragon-nose { fill: #FFB74D; }
      .dragon-blush { fill: #FFAB91; opacity: 0.5; }
      .dragon-wing { fill: #00897B; }
      .dragon-fire { fill: #FF9800; }
    </style>
  </defs>
  <circle class="avatar-bg" cx="100" cy="100" r="100"/>
  <polygon class="dragon-wing" points="40,90 15,60 45,75"/>
  <polygon class="dragon-wing" points="160,90 185,60 155,75"/>
  <polygon class="dragon-horn" points="72,52 68,18 85,48"/>
  <polygon class="dragon-horn" points="128,52 132,18 115,48"/>
  <circle class="dragon-body" cx="100" cy="110" r="50"/>
  <ellipse class="dragon-belly" cx="100" cy="118" rx="26" ry="28"/>
  <circle class="dragon-eye" cx="78" cy="95" r="6"/>
  <circle class="dragon-eye" cx="122" cy="95" r="6"/>
  <circle fill="#FFF" cx="80" cy="93" r="2.5"/>
  <circle fill="#FFF" cx="124" cy="93" r="2.5"/>
  <ellipse class="dragon-nose" cx="100" cy="108" rx="6" ry="4"/>
  <ellipse class="dragon-blush" cx="65" cy="110" r="7" ry="4"/>
  <ellipse class="dragon-blush" cx="135" cy="110" r="7" ry="4"/>
  <path d="M94 112 Q100 118 106 112" stroke="#004D40" stroke-width="1.8" fill="none" stroke-linecap="round"/>
  <path d="M88 122 Q100 130 112 122" stroke="#004D40" stroke-width="2" fill="none" stroke-linecap="round"/>
  <ellipse class="dragon-wing" cx="42" cy="105" rx="14" ry="24"/>
  <ellipse class="dragon-wing" cx="158" cy="105" rx="14" ry="24"/>
  <polygon class="dragon-fire" points="100,140 92,158 100,152 108,158"/>
</svg>